<svg xmlns="http://www.w3.org/2000/svg" width="25" height="25" viewBox="0 0 25 25"><defs><style>.a{fill:#004a79;}</style></defs><g transform="translate(0 -0.013)"><g transform="translate(0 11.42)"><g transform="translate(0)"><path class="a" d="M24.218,236.778a2.183,2.183,0,0,0-3.024.184l-2.153,2.331a2.2,2.2,0,0,0-2.1-1.559H13.1c-.292,0-.389-.112-.9-.506a5.1,5.1,0,0,0-6.755.016L4.039,238.5a2.172,2.172,0,0,0-2.014-.026l-1.62.816a.742.742,0,0,0-.328.991l4.394,8.863a.73.73,0,0,0,.983.33l1.62-.817a2.217,2.217,0,0,0,1.214-2.06h8.655a5.137,5.137,0,0,0,4.1-2.068L24.56,239.8A2.223,2.223,0,0,0,24.218,236.778Zm-17.8,10.558-.964.486-3.74-7.542.965-.486a.729.729,0,0,1,.982.33l3.084,6.221A.742.742,0,0,1,6.419,247.336Zm16.969-8.421-3.516,4.728a3.669,3.669,0,0,1-2.93,1.477H7.777l-2.744-5.536,1.386-1.23a3.647,3.647,0,0,1,4.839,0,2.582,2.582,0,0,0,1.844.858h3.842a.739.739,0,0,1,0,1.477H13.2a.739.739,0,0,0,0,1.477h4.231a2.195,2.195,0,0,0,1.608-.706l3.224-3.491a.728.728,0,0,1,1.024-.048A.741.741,0,0,1,23.388,238.915Z" transform="translate(0 -235.959)"/></g></g><g transform="translate(8.797 0.013)"><g transform="translate(0 0)"><path class="a" d="M187.612,5.053a2.942,2.942,0,0,0,.817-2.037,3,3,0,0,0-2.954-3,3.044,3.044,0,0,0-3,3,2.9,2.9,0,0,0,.844,2.043,4.506,4.506,0,0,0-2.322,3.916v.739a.739.739,0,0,0,.739.739h7.435a.739.739,0,0,0,.739-.739V8.975A4.5,4.5,0,0,0,187.612,5.053ZM185.475,1.49a1.523,1.523,0,0,1,1.477,1.526,1.479,1.479,0,0,1-1.477,1.477,1.523,1.523,0,0,1-1.526-1.477A1.567,1.567,0,0,1,185.475,1.49Zm-3,7.485a3.044,3.044,0,0,1,3-3,2.983,2.983,0,0,1,2.954,3Z" transform="translate(-180.994 -0.013)"/></g></g></g></svg>