<svg xmlns="http://www.w3.org/2000/svg" xmlns:xlink="http://www.w3.org/1999/xlink" width="215.985" height="215.974" viewBox="0 0 215.985 215.974"><defs><style>.a{fill:url(#a);}</style><linearGradient id="a" x1="0.342" y1="-0.359" x2="1.257" y2="3.676" gradientUnits="objectBoundingBox"><stop offset="0" stop-color="#e7523a"/><stop offset="1" stop-color="#ffded8"/></linearGradient></defs><g transform="translate(0 -0.013)"><g transform="translate(0 99.546)"><g transform="translate(0)"><path class="a" d="M209.229,242.974a18.975,18.975,0,0,0-26.127,1.578l-18.6,19.965a19.017,19.017,0,0,0-18.13-13.355H113.185c-2.518,0-3.362-.962-7.736-4.332a44.385,44.385,0,0,0-58.359.139l-12.2,10.739a18.9,18.9,0,0,0-17.4-.219L3.5,264.483a6.333,6.333,0,0,0-2.831,8.491L38.632,348.9a6.333,6.333,0,0,0,8.491,2.831l13.992-7A18.967,18.967,0,0,0,71.6,327.09h74.772a44.5,44.5,0,0,0,35.433-17.716l30.375-40.5A18.93,18.93,0,0,0,209.229,242.974ZM55.454,333.417l-8.331,4.167-32.307-64.61,8.335-4.167a6.324,6.324,0,0,1,8.487,2.831L58.285,324.93A6.327,6.327,0,0,1,55.454,333.417Zm146.6-72.139-30.375,40.5a31.783,31.783,0,0,1-25.309,12.655H67.185L43.475,267.01,55.45,256.468a31.714,31.714,0,0,1,41.8,0c7.019,6.18,11.385,7.348,15.932,7.348h33.189a6.327,6.327,0,1,1,0,12.655H114.058a6.327,6.327,0,0,0,0,12.655h36.555a19.035,19.035,0,0,0,13.891-6.045l27.857-29.9a6.326,6.326,0,0,1,9.7,8.1Z" transform="translate(0 -235.959)"/></g></g><g transform="translate(76.352 0.013)"><path class="a" d="M237.686,43.191a25.207,25.207,0,0,0,7-17.447c0-13.929-11.254-25.731-25.309-25.731a26.073,26.073,0,0,0-25.731,25.731,24.839,24.839,0,0,0,7.234,17.5,38.6,38.6,0,0,0-19.889,33.543v6.327a6.33,6.33,0,0,0,6.327,6.327h63.695a6.33,6.33,0,0,0,6.327-6.327V76.784A38.57,38.57,0,0,0,237.686,43.191ZM219.379,12.668c6.859,0,12.655,5.99,12.655,13.076A12.67,12.67,0,0,1,219.379,38.4c-7.087,0-13.076-5.8-13.076-12.655A13.421,13.421,0,0,1,219.379,12.668ZM193.649,76.784a26.073,26.073,0,0,1,25.731-25.731,25.551,25.551,0,0,1,25.309,25.731Z" transform="translate(-180.994 -0.013)"/></g></g></svg>