<svg xmlns="http://www.w3.org/2000/svg" width="30.72" height="23.893" viewBox="0 0 30.72 23.893"><defs><style>.a{fill:#004a79;}</style></defs><path class="a" d="M15.36,38.4a1.28,1.28,0,1,0-1.28-1.28A1.28,1.28,0,0,0,15.36,38.4Zm-7.253.427a1.28,1.28,0,1,0,1.28,1.28A1.28,1.28,0,0,0,8.107,38.827Zm14.507,0a1.28,1.28,0,1,0,1.28,1.28A1.28,1.28,0,0,0,22.613,38.827ZM25.6,46.08a1.28,1.28,0,1,0,1.28,1.28A1.28,1.28,0,0,0,25.6,46.08ZM15.36,32A15.359,15.359,0,0,0,2.083,55.083a1.688,1.688,0,0,0,1.463.811H27.173a1.688,1.688,0,0,0,1.463-.811A15.359,15.359,0,0,0,15.36,32ZM27.173,54.187l-23.616.036A13.653,13.653,0,1,1,29.013,47.36,13.5,13.5,0,0,1,27.173,54.187ZM5.12,46.08A1.28,1.28,0,1,0,6.4,47.36,1.28,1.28,0,0,0,5.12,46.08Zm14.358-8.913a.862.862,0,0,0-1.085.527l-2.764,7.986c-.09-.007-.177-.027-.269-.027a3.418,3.418,0,1,0,1.887.571l2.759-7.972a.854.854,0,0,0-.529-1.085ZM15.36,50.773a1.707,1.707,0,1,1,1.707-1.707A1.709,1.709,0,0,1,15.36,50.773Z" transform="translate(0 -32)"/></svg>