<svg xmlns="http://www.w3.org/2000/svg" xmlns:xlink="http://www.w3.org/1999/xlink" width="168.853" height="217.096" viewBox="0 0 168.853 217.096"><defs><style>.a{fill:url(#a);}.b{fill:#b8a6e7;}</style><linearGradient id="a" x1="-0.524" y1="1.269" x2="2.176" y2="-0.632" gradientUnits="objectBoundingBox"><stop offset="0" stop-color="#9795f0"/><stop offset="1" stop-color="#fbc8d4"/></linearGradient></defs><g transform="translate(-382.293 -241.452)"><path class="a" d="M173.853,39.183V183.913A36.183,36.183,0,0,1,137.67,220.1H41.183A36.183,36.183,0,0,1,5,183.913V39.183A36.183,36.183,0,0,1,41.183,3H137.67A36.183,36.183,0,0,1,173.853,39.183Zm-12.061,0A24.149,24.149,0,0,0,137.67,15.061H41.183A24.15,24.15,0,0,0,17.061,39.183V183.913a24.15,24.15,0,0,0,24.122,24.122H137.67a24.15,24.15,0,0,0,24.122-24.122Z" transform="translate(377.293 238.452)"/><path class="b" d="M67.369,104.824A5.541,5.541,0,1,1,75.317,97.1,20.374,20.374,0,0,0,90.2,102.243c7.172,0,11.014-2.71,11.014-7.684a6.866,6.866,0,0,0-1.921-5.25,9.227,9.227,0,0,0-5.507-2.177l-7.512-1.046A21.1,21.1,0,0,1,74.217,80.92a16.431,16.431,0,0,1-4.46-12.229,18.033,18.033,0,0,1,15.522-18.2l-.022-6.442a5.332,5.332,0,0,1,5.3-4.857,5.425,5.425,0,0,1,5.273,4.985V50.1a25.036,25.036,0,0,1,15.5,6.8,5.344,5.344,0,0,1,1.785,3.96,5.4,5.4,0,0,1-9.26,3.785l-.013.013a17.294,17.294,0,0,0-12.763-4.268c-6.467,0-9.6,3.587-9.6,7.855A6.032,6.032,0,0,0,83.31,72.7a10.625,10.625,0,0,0,5.763,2.455L96.416,76.2a20.713,20.713,0,0,1,11.888,4.8,17.47,17.47,0,0,1,4.8,13.191,18.6,18.6,0,0,1-17.279,18.343v5.971H95.8a5.244,5.244,0,0,1-10.485,0H85.28v-5.721a27.069,27.069,0,0,1-17.955-7.922Zm64.3,42.937H47.222a6.032,6.032,0,0,0,0,12.063h84.444a6.032,6.032,0,0,0,0-12.063Zm0,24.127H47.222a6.032,6.032,0,1,0,0,12.063h84.444a6.032,6.032,0,1,0,0-12.063Z" transform="translate(374.557 232.43)"/></g></svg>