<svg xmlns="http://www.w3.org/2000/svg" xmlns:xlink="http://www.w3.org/1999/xlink" width="135" height="38" viewBox="0 0 135 38"><defs><style>.a{fill:none;}.b{clip-path:url(#a);}.c{fill:url(#b);}.d{fill:#2b266c;font-size:8px;font-family:Poppins-Regular, Poppins;}</style><clipPath id="a"><path class="a" d="M45.46,24.188h2.264v-8.8H45.46ZM61.233,12.41v2.15h3.528v9.628H67.08V14.559h3.544V12.41Zm29.918,2.021h2.1c1.225,0,2.023.68,2.023,1.69,0,1.029-.8,1.71-2.023,1.71h-2.1ZM88.83,12.41V24.188h2.32V19.851h1.707l2.432,4.337h2.687L95.216,19.5a3.5,3.5,0,0,0,2.505-3.385c0-2.241-1.856-3.711-4.658-3.711Zm32.108,0v6.964a2.5,2.5,0,0,1-2.524,2.774,2.535,2.535,0,0,1-2.561-2.793V12.41h-2.322v6.983c0,3.034,1.931,5.052,4.846,5.052a4.693,4.693,0,0,0,4.881-5.052V12.41Zm7.378,2.021h2.1a1.9,1.9,0,1,1,0,3.766h-2.1ZM126,12.41V24.188h2.32V20.22h1.875c2.9,0,4.808-1.543,4.808-3.913,0-2.352-1.894-3.9-4.772-3.9Zm-76.25,5.9a6.063,6.063,0,0,0,6.107,6.137,5.637,5.637,0,0,0,4.4-1.671l-1.537-1.691a3.847,3.847,0,1,1-2.841-6.633,4.281,4.281,0,0,1,2.841,1.066l1.533-1.744a5.925,5.925,0,0,0-4.4-1.616,6.127,6.127,0,0,0-6.107,6.155m25.928,0a6.062,6.062,0,0,0,6.106,6.137,7.376,7.376,0,0,0,4.492-1.284v-4.8H83.953v3.325a4.518,4.518,0,0,1-2,.46,3.852,3.852,0,0,1-.151-7.7,4.286,4.286,0,0,1,2.84,1.066l1.549-1.744a5.93,5.93,0,0,0-4.4-1.616,6.126,6.126,0,0,0-6.106,6.155m26.032,0a3.688,3.688,0,1,1,3.676,3.84,3.774,3.774,0,0,1-3.676-3.84m-2.468,0a6.153,6.153,0,1,0,6.144-6.155,6.14,6.14,0,0,0-6.144,6.155m-53.99-5.422a1.327,1.327,0,1,0,2-1.171,1.339,1.339,0,0,0-1.35,0,1.311,1.311,0,0,0-.652,1.171M17.115,7.053a1.069,1.069,0,1,0,1.069-1.059,1.064,1.064,0,0,0-1.069,1.059M2.153,17.355A16.064,16.064,0,0,1,33.9,14.814a1.756,1.756,0,0,1-.364,1.475,1.794,1.794,0,0,1-1.385.653H21.037a1.793,1.793,0,0,1-1.263-.518,1.757,1.757,0,0,1-.521-1.251V11a1.1,1.1,0,0,0-1.013-1.117,1.075,1.075,0,0,0-.79.286,1.052,1.052,0,0,0-.336.764V25a1.1,1.1,0,0,0,1.012,1.117,1.076,1.076,0,0,0,.793-.289,1.053,1.053,0,0,0,.334-.769V20.824a1.756,1.756,0,0,1,.522-1.249,1.792,1.792,0,0,1,1.262-.517H32.154a1.8,1.8,0,0,1,1.383.65,1.756,1.756,0,0,1,.368,1.471A16.059,16.059,0,0,1,2.149,17.355M18.184,0A18.114,18.114,0,0,0,0,18a18.193,18.193,0,0,0,36.341,1.059q.034-.525.033-1.059t-.033-1.059A18.138,18.138,0,0,0,18.184,0Z" transform="translate(0)"/></clipPath><linearGradient id="b" x1="0.011" y1="1.888" x2="1" y2="1.877" gradientUnits="objectBoundingBox"><stop offset="0" stop-color="#ed2891"/><stop offset="0.03" stop-color="#d72991"/><stop offset="0.09" stop-color="#b22a91"/><stop offset="0.15" stop-color="#932b91"/><stop offset="0.21" stop-color="#7b2c91"/><stop offset="0.28" stop-color="#692d91"/><stop offset="0.35" stop-color="#5f2d91"/><stop offset="0.44" stop-color="#5c2d91"/><stop offset="0.65" stop-color="#42297d"/><stop offset="0.85" stop-color="#2f266f"/><stop offset="1" stop-color="#29256a"/></linearGradient></defs><g transform="translate(8.5 -1022)"><g transform="translate(-8.5 1024)"><g transform="translate(0)"><g class="b"><rect class="c" width="136" height="38" transform="translate(-1 -1)"/></g></g></g><text class="d" transform="translate(36.5 1030)"><tspan x="0" y="0">POWERED BY</tspan></text></g></svg>