<svg xmlns="http://www.w3.org/2000/svg" xmlns:xlink="http://www.w3.org/1999/xlink" width="215.837" height="215.838" viewBox="0 0 215.837 215.838"><defs><style>.a{fill:url(#a);}</style><linearGradient id="a" x1="2.841" y1="-0.857" x2="1.266" y2="1.823" gradientUnits="objectBoundingBox"><stop offset="0" stop-color="#fbab7e"/><stop offset="1" stop-color="#f7ce68"/></linearGradient></defs><g transform="translate(-118.532 -28.118)"><path class="a" d="M192.05,149.878a7.553,7.553,0,0,1,8.379-12.569l17.01,11.34,33.42-40.1a7.556,7.556,0,0,1,11.612,9.67l-37.766,45.317a7.559,7.559,0,0,1-10,1.45Z"/><path class="a" d="M226.453,28.118H226.4a108.5,108.5,0,0,0-24.728,2.862,6.057,6.057,0,0,0,2.814,11.782,95.823,95.823,0,1,1-73.846,93.278,98.432,98.432,0,0,1,.857-12.861,6.058,6.058,0,1,0-12.01-1.6,110.355,110.355,0,0,0-.956,14.462A107.918,107.918,0,1,0,226.453,28.118ZM203.8,39.842Z"/><path class="a" d="M157.072,67.515h.015A6.083,6.083,0,0,0,161.2,65.89,95.474,95.474,0,0,1,185.1,49.6a6.072,6.072,0,0,0,2.884-7.98l-.049-.108a6.066,6.066,0,0,0-8.075-2.846,107.933,107.933,0,0,0-26.9,18.35,6.059,6.059,0,0,0-.323,8.561A6.078,6.078,0,0,0,157.072,67.515Zm0-3Z"/><path class="a" d="M129.318,104.6a5.874,5.874,0,0,0,2.187.426h.037a6.087,6.087,0,0,0,5.636-3.849,95.863,95.863,0,0,1,8.985-17.425,6.048,6.048,0,0,0-1.635-8.3l-.125-.087a6.059,6.059,0,0,0-8.344,1.691l-.136.208a107.727,107.727,0,0,0-10.014,19.5,6.044,6.044,0,0,0,3.409,7.837Z"/></g></svg>