<svg xmlns="http://www.w3.org/2000/svg" xmlns:xlink="http://www.w3.org/1999/xlink" width="238.436" height="208.632" viewBox="0 0 238.436 208.632"><defs><style>.a{opacity:0.277;}.a,.c{fill:url(#a);}.b{clip-path:url(#b);}</style><linearGradient id="a" x1="0.263" y1="0.296" x2="-0.293" y2="1.304" gradientUnits="objectBoundingBox"><stop offset="0" stop-color="#00cc75"/><stop offset="1" stop-color="#e6fff3"/></linearGradient><clipPath id="b"><path class="a" d="M149.023,136.316A52.158,52.158,0,1,0,96.865,84.158,52.132,52.132,0,0,0,149.023,136.316Zm0-89.413a37.256,37.256,0,1,1-37.256,37.256A37.305,37.305,0,0,1,149.023,46.9ZM44.707,121.414A37.256,37.256,0,1,0,7.451,84.158,37.245,37.245,0,0,0,44.707,121.414Zm0-59.609A22.353,22.353,0,1,1,22.353,84.158,22.359,22.359,0,0,1,44.707,61.8ZM186.325,145.63c-15.554,0-19.42,5.588-37.3,5.588s-21.748-5.588-37.3-5.588c-16.9,0-33.344,7.544-42.984,21.841a53.365,53.365,0,0,0-9.128,29.944v20.863a22.359,22.359,0,0,0,22.353,22.353h134.12a22.359,22.359,0,0,0,22.353-22.353V197.415a53.365,53.365,0,0,0-9.128-29.944C219.669,153.174,203.23,145.63,186.325,145.63Zm37.209,72.649a7.473,7.473,0,0,1-7.451,7.451H81.962a7.473,7.473,0,0,1-7.451-7.451V197.415a38.69,38.69,0,0,1,6.566-21.608c6.427-9.547,17.883-15.275,30.6-15.275,12.76,0,17.324,5.588,37.349,5.588s24.589-5.588,37.3-5.588,24.17,5.728,30.6,15.275a38.69,38.69,0,0,1,6.566,21.608v20.863ZM73.161,142.323a33.916,33.916,0,0,0-19.14-6.007H35.393C15.88,136.316,0,153.034,0,173.571a7.451,7.451,0,1,0,14.9,0c0-12.341,9.221-22.353,20.491-22.353H54.021a18.531,18.531,0,0,1,7.311,1.537A64.622,64.622,0,0,1,73.161,142.323Z" transform="translate(413 288.709)"/></clipPath></defs><g class="b" transform="translate(-413 -320.709)"><rect class="c" width="481" height="288" rx="24" transform="translate(412.893 249.316)"/></g></svg>