<svg xmlns="http://www.w3.org/2000/svg" xmlns:xlink="http://www.w3.org/1999/xlink" width="223.64" height="208.54" viewBox="0 0 223.64 208.54"><defs><style>.a{fill:url(#a);}</style><linearGradient id="a" x1="1.625" y1="-0.789" x2="-0.234" y2="-0.23" gradientUnits="objectBoundingBox"><stop offset="0" stop-color="#36d1dc"/><stop offset="1" stop-color="#a3dcff"/></linearGradient></defs><g transform="translate(0 0)"><path class="a" d="M32.233,121.541H43.5a2.148,2.148,0,0,0,2.157-2.157V108.119C57.4,106.2,67.227,96.854,68.426,84.87a26.4,26.4,0,0,0-26.365-29H33.671A11.029,11.029,0,0,1,22.646,43.644c.479-5.752,5.752-9.827,11.5-9.827h9.827a7.7,7.7,0,0,1,7.43,5.992,2.3,2.3,0,0,0,2.157,1.678H64.83a2.087,2.087,0,0,0,2.157-2.4A23.087,23.087,0,0,0,45.416,18.477V7.452a2.148,2.148,0,0,0-2.157-2.157H32.233a2.148,2.148,0,0,0-2.157,2.157V18.477A26.585,26.585,0,0,0,7.306,47.239C8.744,60.9,20.968,70.968,34.87,70.968H42.06A11.029,11.029,0,0,1,53.086,83.192c-.479,5.752-5.752,9.827-11.5,9.827H31.514a7.7,7.7,0,0,1-7.43-5.992,2.3,2.3,0,0,0-2.157-1.678H10.662a2.087,2.087,0,0,0-2.157,2.4,23.087,23.087,0,0,0,21.572,20.613v11.025A2.148,2.148,0,0,0,32.233,121.541Z" transform="translate(56.076 37.488)"/><path class="a" d="M101.47,185.579a83.41,83.41,0,1,1,83.41-83.41,92.648,92.648,0,0,1-1.917,18.456,11.669,11.669,0,0,1,2.876-.24,51.838,51.838,0,0,1,14.86,2.157,94.784,94.784,0,0,0,1.917-20.373A101.064,101.064,0,0,0,101.71,1.262C46.1,1.262.563,46.562.563,102.169A101.064,101.064,0,0,0,101.47,203.076a98.129,98.129,0,0,0,38.589-7.67,48.775,48.775,0,0,1-5.273-17.018A80.62,80.62,0,0,1,101.47,185.579Z" transform="translate(-0.563 -1.262)"/><path class="a" d="M63.758,13.293a49.51,49.51,0,1,0,49.23,49.51A49.009,49.009,0,0,0,63.758,13.293Zm21.538,40L62.64,80.145a4.779,4.779,0,0,1-7.273,0L42.5,64.761a4.961,4.961,0,0,1,7.552-6.434l9.231,10.909L78.024,46.859a5.156,5.156,0,0,1,6.993-.559A5.5,5.5,0,0,1,85.3,53.292Z" transform="translate(110.649 96.228)"/></g></svg>