<svg xmlns="http://www.w3.org/2000/svg" xmlns:xlink="http://www.w3.org/1999/xlink" width="213.471" height="213.568" viewBox="0 0 213.471 213.568"><defs><style>.a{fill:url(#a);}.b{fill:#f9a9ac;}</style><linearGradient id="a" x1="-0.075" y1="1.662" x2="2.326" y2="-1.253" gradientUnits="objectBoundingBox"><stop offset="0" stop-color="#f794a4"/><stop offset="1" stop-color="#fdd6bd"/></linearGradient></defs><g transform="translate(-28.27 -28.547)"><path class="a" d="M135.007,242.115A106.788,106.788,0,0,1,59.533,59.83a106.734,106.734,0,0,1,150.987,0,107.121,107.121,0,0,1,18.856,125.525l10.639,39.677a12.585,12.585,0,0,1-3.227,12.063,12.42,12.42,0,0,1-8.856,3.679h0a12.54,12.54,0,0,1-3.222-.427L185.019,229.7A106.829,106.829,0,0,1,135.007,242.115Zm.02-200.748a93.969,93.969,0,0,0-66.422,160.4,93.984,93.984,0,0,0,112.445,15.5l2.294-1.292,44.142,11.842-11.837-44.162,1.292-2.284a93.977,93.977,0,0,0-81.913-140Z" transform="translate(0)"/><circle class="b" cx="8.658" cy="8.658" r="8.658" transform="translate(120.434 169.697)"/><path class="b" d="M68.517,39.741c-7.679.326-17.665,2.4-21.938,6.708a8.558,8.558,0,0,0,5.776,15.2c.116,0,.24-.043.352-.047a5.879,5.879,0,0,0,1.666-.309,8.192,8.192,0,0,0,2.71-1.314,25.886,25.886,0,0,1,10.479-2.95c6.64-.283,9.753,2.315,9.942,6.88.331,7.726-17.656,18.515-18.627,33.8a8.263,8.263,0,0,0,2.16,4.883,20.916,20.916,0,0,0,2.478,1.855,8.245,8.245,0,0,0,11.467-4.57,6.493,6.493,0,0,0,.223-.906c2.246-12.3,23.419-17.527,22.582-37.232C97.176,47.4,85.98,39,68.517,39.741Z" transform="translate(63.051 47.338)"/></g></svg>