<svg xmlns="http://www.w3.org/2000/svg" width="30" height="21" viewBox="0 0 30 21"><defs><style>.a{fill:#004a79;}</style></defs><path class="a" d="M25.5,41a3.75,3.75,0,1,0-3.75-3.75A3.749,3.749,0,0,0,25.5,41Zm0-6a2.25,2.25,0,1,1-2.25,2.25A2.251,2.251,0,0,1,25.5,35ZM15,42.5a5.25,5.25,0,1,0-5.25-5.25A5.247,5.247,0,0,0,15,42.5Zm0-9a3.75,3.75,0,1,1-3.75,3.75A3.755,3.755,0,0,1,15,33.5Zm11.438,9H24.563a3.391,3.391,0,0,0-1.927.6,6.354,6.354,0,0,1,1.191,1.05A1.865,1.865,0,0,1,24.563,44h1.875A2.166,2.166,0,0,1,28.5,46.25a.75.75,0,0,0,1.5,0A3.665,3.665,0,0,0,26.438,42.5ZM4.5,41A3.75,3.75,0,1,0,.75,37.25,3.749,3.749,0,0,0,4.5,41Zm0-6a2.25,2.25,0,1,1-2.25,2.25A2.251,2.251,0,0,1,4.5,35Zm14.255,8.438C17.189,43.438,16.8,44,15,44s-2.189-.563-3.755-.563a5.166,5.166,0,0,0-4.327,2.2A5.372,5.372,0,0,0,6,48.65v2.1A2.251,2.251,0,0,0,8.25,53h13.5A2.251,2.251,0,0,0,24,50.75v-2.1a5.372,5.372,0,0,0-.919-3.014A5.166,5.166,0,0,0,18.755,43.438ZM22.5,50.75a.752.752,0,0,1-.75.75H8.25a.752.752,0,0,1-.75-.75v-2.1a3.894,3.894,0,0,1,.661-2.175,3.669,3.669,0,0,1,3.08-1.537c1.284,0,1.744.563,3.759.563s2.475-.563,3.755-.563a3.669,3.669,0,0,1,3.08,1.537A3.894,3.894,0,0,1,22.5,48.65v2.1ZM7.364,43.1a3.414,3.414,0,0,0-1.927-.6H3.563A3.665,3.665,0,0,0,0,46.25a.75.75,0,0,0,1.5,0A2.166,2.166,0,0,1,3.563,44H5.438a1.865,1.865,0,0,1,.736.155A6.5,6.5,0,0,1,7.364,43.1Z" transform="translate(0 -32)"/></svg>