<svg xmlns="http://www.w3.org/2000/svg" xmlns:xlink="http://www.w3.org/1999/xlink" width="216.191" height="200.749" viewBox="0 0 216.191 200.749"><defs><style>.a{fill:url(#a);}.b{fill:#fe849d;}</style><linearGradient id="a" x1="-0.41" y1="1.436" x2="2.617" y2="-1" gradientUnits="objectBoundingBox"><stop offset="0" stop-color="#ffaba2"/><stop offset="1" stop-color="#fe5196"/></linearGradient></defs><g transform="translate(-8 -11)"><path class="a" d="M201.027,34.163H185.585V18.721a7.721,7.721,0,0,0-15.442,0V34.163H123.816V18.721a7.721,7.721,0,0,0-15.442,0V34.163H62.048V18.721a7.721,7.721,0,0,0-15.442,0V34.163H31.163A23.188,23.188,0,0,0,8,57.327V188.585a23.188,23.188,0,0,0,23.163,23.163H201.027a23.188,23.188,0,0,0,23.163-23.163V57.327A23.188,23.188,0,0,0,201.027,34.163Zm7.721,154.422a7.729,7.729,0,0,1-7.721,7.721H31.163a7.729,7.729,0,0,1-7.721-7.721V95.932H208.749Zm0-108.1H23.442V57.327a7.729,7.729,0,0,1,7.721-7.721H46.605V65.048a7.721,7.721,0,1,0,15.442,0V49.605h46.327V65.048a7.721,7.721,0,0,0,15.442,0V49.605h46.327V65.048a7.721,7.721,0,1,0,15.442,0V49.605h15.442a7.729,7.729,0,0,1,7.721,7.721Z"/><path class="b" d="M38.44,95.029a7.721,7.721,0,0,1,8.565-12.848L64.393,93.773,98.556,52.779a7.724,7.724,0,0,1,11.87,9.886L71.821,108.991A7.727,7.727,0,0,1,61.6,110.473Z" transform="translate(42.488 61.375)"/></g></svg>