<svg xmlns="http://www.w3.org/2000/svg" xmlns:xlink="http://www.w3.org/1999/xlink" width="214.088" height="207.158" viewBox="0 0 214.088 207.158"><defs><style>.a{fill:url(#a);}</style><linearGradient id="a" x1="1.046" y1="1.063" x2="-0.234" y2="-0.23" gradientUnits="objectBoundingBox"><stop offset="0" stop-color="#e4efe9"/><stop offset="1" stop-color="#93a5cf"/></linearGradient></defs><path class="a" d="M-5041.053-2496.842a7.526,7.526,0,0,1-5.321-2.233l-27.605-27.606a7.527,7.527,0,0,1,.185-10.456,7.53,7.53,0,0,1,10.457-.185l22.586,22.587,41.209-36.691a7.537,7.537,0,0,1,10.642.6,7.536,7.536,0,0,1-.6,10.64l-46.528,41.435a7.527,7.527,0,0,1-5.01,1.907Zm79.506-20.98a7.527,7.527,0,0,1-7.528-7.529,7.528,7.528,0,0,1,7.528-7.529h92.1a7.529,7.529,0,0,1,7.53,7.529,7.529,7.529,0,0,1-7.53,7.529Zm-84.827-56.543-27.605-27.606a7.527,7.527,0,0,1,.185-10.457,7.53,7.53,0,0,1,10.457-.185l22.586,22.587,41.209-36.767v.075a7.537,7.537,0,0,1,10.642.6,7.536,7.536,0,0,1-.6,10.64l-46.528,41.41a7.506,7.506,0,0,1-5.009,1.909A7.514,7.514,0,0,1-5046.374-2574.366Zm84.827-18.747a7.528,7.528,0,0,1-7.528-7.529,7.528,7.528,0,0,1,7.528-7.529h92.1a7.529,7.529,0,0,1,7.53,7.529,7.529,7.529,0,0,1-7.53,7.529Zm-84.827-56.543-27.605-27.606a7.527,7.527,0,0,1,.185-10.457,7.53,7.53,0,0,1,10.457-.185l22.586,22.587,41.209-36.766a7.533,7.533,0,0,1,5.446-1.906,7.529,7.529,0,0,1,5.2,2.509,7.525,7.525,0,0,1,1.943,5.484,7.528,7.528,0,0,1-2.546,5.233l-46.528,41.409a7.506,7.506,0,0,1-5.009,1.909A7.513,7.513,0,0,1-5046.374-2649.656Zm84.827-18.747a7.528,7.528,0,0,1-7.528-7.529,7.528,7.528,0,0,1,7.528-7.529h92.1a7.529,7.529,0,0,1,7.53,7.529,7.529,7.529,0,0,1-7.53,7.529Z" transform="translate(5076 2704)"/></svg>