<svg xmlns="http://www.w3.org/2000/svg" xmlns:xlink="http://www.w3.org/1999/xlink" width="192.88" height="220.435" viewBox="0 0 192.88 220.435"><defs><style>.a{fill:url(#a);}</style><linearGradient id="a" x1="0.7" y1="1.235" x2="2.182" y2="-0.34" gradientUnits="objectBoundingBox"><stop offset="0" stop-color="#229be5"/><stop offset="1" stop-color="#a3dcff"/></linearGradient></defs><path class="a" d="M135.016,151.549c-12.365,0-18.276,6.889-38.576,6.889s-26.211-6.889-38.559-6.889A57.864,57.864,0,0,0,0,209.413a11.022,11.022,0,0,0,11.022,11.022H181.859a11.022,11.022,0,0,0,11.022-11.022,57.864,57.864,0,0,0-57.864-57.864ZM13.863,206.657a44.147,44.147,0,0,1,44.018-41.332c8.533,0,16.756,6.889,38.559,6.889,21.957,0,29.965-6.889,38.576-6.889a44.143,44.143,0,0,1,44,41.331ZM37.887,68.886h5.451a53.524,53.524,0,0,0-2.006,13.777,55.109,55.109,0,0,0,110.217,0,53.524,53.524,0,0,0-2.006-13.777h5.451a3.444,3.444,0,0,0,3.444-3.444V58.553a3.444,3.444,0,0,0-3.444-3.444h-3.444A48.091,48.091,0,0,0,116.1,8.817,13.73,13.73,0,0,0,103.329,0H89.552A13.73,13.73,0,0,0,76.778,8.817,48.091,48.091,0,0,0,41.331,55.109H37.887a3.444,3.444,0,0,0-3.444,3.444v6.889A3.444,3.444,0,0,0,37.887,68.886Zm79.219-45.245a34.417,34.417,0,0,1,20.666,31.468H117.106ZM89.552,13.777h13.777V55.109H89.552ZM55.109,55.109A34.417,34.417,0,0,1,75.774,23.641V55.109Zm2.583,13.777h77.5a39.608,39.608,0,0,1,2.583,13.777,41.331,41.331,0,0,1-82.663,0A39.61,39.61,0,0,1,57.692,68.886Z"/></svg>