<svg xmlns="http://www.w3.org/2000/svg" width="22.673" height="21.939" viewBox="0 0 22.673 21.939"><defs><style>.a{fill:#1b6592;}</style></defs><g transform="translate(-7.395 -8.726)"><path class="a" d="M15.492,38.952l-4.364,3.894L8.736,40.454A.8.8,0,0,0,7.609,41.58L10.532,44.5a.8.8,0,0,0,1.1.032l4.928-4.385a.8.8,0,0,0-1.063-1.191Z" transform="translate(0 -22.049)"/><path class="a" d="M60.552,46.91H50.8a.8.8,0,0,0,0,1.595h9.754a.8.8,0,1,0,0-1.595Z" transform="translate(-31.281 -28.035)"/><path class="a" d="M11.1,74.741a.8.8,0,0,0,.532-.2l4.928-4.388a.8.8,0,0,0-1.063-1.191l-4.364,3.886L8.736,70.454A.8.8,0,0,0,7.609,71.58L10.532,74.5a.8.8,0,0,0,.563.237Z" transform="translate(0 -44.076)"/><path class="a" d="M60.552,76.91H50.8a.8.8,0,0,0,0,1.595h9.754a.8.8,0,1,0,0-1.595Z" transform="translate(-31.281 -50.062)"/><path class="a" d="M16.619,8.993a.8.8,0,0,0-1.127-.064l-4.364,3.894L8.736,10.431a.8.8,0,0,0-1.127,1.127l2.924,2.924a.8.8,0,0,0,1.1.032l4.928-4.385a.8.8,0,0,0,.064-1.135Z"/><path class="a" d="M60.552,16.91H50.8a.8.8,0,0,0,0,1.595h9.754a.8.8,0,1,0,0-1.595Z" transform="translate(-31.281 -6.009)"/></g></svg>