<svg xmlns="http://www.w3.org/2000/svg" width="25.87" height="29.565" viewBox="0 0 25.87 29.565"><defs><style>.a{fill:#004a79;}</style></defs><path class="a" d="M18.109,20.326c-1.658,0-2.451.924-5.174.924s-3.516-.924-5.172-.924A7.761,7.761,0,0,0,0,28.087a1.478,1.478,0,0,0,1.478,1.478H24.391a1.478,1.478,0,0,0,1.478-1.478,7.761,7.761,0,0,0-7.761-7.761ZM1.859,27.718a5.921,5.921,0,0,1,5.9-5.544c1.145,0,2.247.924,5.172.924,2.945,0,4.019-.924,5.174-.924a5.921,5.921,0,0,1,5.9,5.544ZM5.082,9.239h.731a7.179,7.179,0,0,0-.269,1.848,7.391,7.391,0,0,0,14.783,0,7.179,7.179,0,0,0-.269-1.848h.731a.462.462,0,0,0,.462-.462V7.853a.462.462,0,0,0-.462-.462h-.462a6.45,6.45,0,0,0-4.754-6.209A1.841,1.841,0,0,0,13.859,0H12.011A1.841,1.841,0,0,0,10.3,1.183,6.45,6.45,0,0,0,5.544,7.391H5.082a.462.462,0,0,0-.462.462v.924A.462.462,0,0,0,5.082,9.239ZM15.707,3.171a4.616,4.616,0,0,1,2.772,4.221H15.707Zm-3.7-1.323h1.848V7.391H12.011ZM7.391,7.391a4.616,4.616,0,0,1,2.772-4.221V7.391Zm.346,1.848H18.132a5.312,5.312,0,0,1,.346,1.848,5.544,5.544,0,0,1-11.087,0A5.313,5.313,0,0,1,7.738,9.239Z" transform="translate(0)"/></svg>