<svg xmlns="http://www.w3.org/2000/svg" width="18.667" height="24" viewBox="0 0 18.667 24"><defs><style>.a{fill:#1b6592;}</style></defs><g transform="translate(-5 -3)"><path class="a" d="M11.893,14.254a.612.612,0,1,1,.879-.854,2.252,2.252,0,0,0,1.645.568c.793,0,1.217-.3,1.217-.849a.759.759,0,0,0-.212-.58,1.02,1.02,0,0,0-.609-.241l-.83-.116a2.332,2.332,0,0,1-1.333-.571,1.816,1.816,0,0,1-.493-1.352,1.993,1.993,0,0,1,1.716-2.012l0-.712A.589.589,0,0,1,14.456,7a.6.6,0,0,1,.583.551v.655a2.767,2.767,0,0,1,1.714.751.591.591,0,0,1,.2.438.6.6,0,0,1-1.023.418h0a1.911,1.911,0,0,0-1.411-.472c-.715,0-1.062.4-1.062.868a.667.667,0,0,0,.2.493,1.174,1.174,0,0,0,.637.271l.812.116a2.289,2.289,0,0,1,1.314.531,1.931,1.931,0,0,1,.531,1.458,2.056,2.056,0,0,1-1.91,2.027v.66h0a.58.58,0,0,1-1.159,0h0v-.632a2.992,2.992,0,0,1-1.985-.876ZM23.667,7V23a4,4,0,0,1-4,4H9a4,4,0,0,1-4-4V7A4,4,0,0,1,9,3H19.667A4,4,0,0,1,23.667,7ZM22.333,7a2.67,2.67,0,0,0-2.667-2.667H9A2.67,2.67,0,0,0,6.333,7V23A2.67,2.67,0,0,0,9,25.667H19.667A2.67,2.67,0,0,0,22.333,23ZM19,19H9.667a.667.667,0,1,0,0,1.333H19A.667.667,0,0,0,19,19Zm0,2.667H9.667a.667.667,0,1,0,0,1.333H19a.667.667,0,1,0,0-1.333Z" transform="translate(0)"/></g></svg>