<svg xmlns="http://www.w3.org/2000/svg" width="22" height="22" viewBox="0 0 22 22"><defs><style>.a,.d{fill:none;}.a{stroke:#1b6592;}.b{fill:#1b6592;}.c{stroke:none;}</style></defs><g transform="translate(-2.198 -1.996)"><g transform="translate(2.195 2.193)"><g class="a" transform="translate(0.002 -0.197)"><circle class="c" cx="11" cy="11" r="11"/><circle class="d" cx="11" cy="11" r="10.5"/></g><path class="b" d="M9.049,13.988h.842a.161.161,0,0,0,.161-.161v-.842a2.015,2.015,0,0,0,1.7-1.739A1.974,1.974,0,0,0,9.784,9.077H9.156a.825.825,0,0,1-.825-.914.841.841,0,0,1,.86-.735h.735a.576.576,0,0,1,.556.448A.172.172,0,0,0,10.644,8h.842a.156.156,0,0,0,.161-.179A1.727,1.727,0,0,0,10.035,6.28V5.456a.161.161,0,0,0-.161-.161H9.049a.161.161,0,0,0-.161.161V6.28a1.988,1.988,0,0,0-1.7,2.151,2.043,2.043,0,0,0,2.061,1.774h.538a.825.825,0,0,1,.825.914.841.841,0,0,1-.86.735H8.995a.576.576,0,0,1-.556-.448.172.172,0,0,0-.161-.125H7.436a.156.156,0,0,0-.161.179A1.727,1.727,0,0,0,8.887,13v.825A.161.161,0,0,0,9.049,13.988Z" transform="translate(1.468 1.061)"/><path class="b" d="M18.685,13.293a4.69,4.69,0,1,0,4.663,4.69A4.642,4.642,0,0,0,18.685,13.293Zm2.04,3.789-2.146,2.544a.453.453,0,0,1-.689,0l-1.219-1.457a.47.47,0,0,1,.715-.609l.874,1.033,1.775-2.12a.488.488,0,0,1,.662-.053A.521.521,0,0,1,20.725,17.082Z" transform="translate(-1.346 -0.87)"/></g></g></svg>