<svg xmlns="http://www.w3.org/2000/svg" width="23.019" height="23.019" viewBox="0 0 23.019 23.019"><defs><style>.a,.b{fill:#1b6592;}.b{stroke:#1b6592;}</style></defs><g transform="translate(91.51 -8863.49)"><path class="a" d="M35.352,54.623a.793.793,0,0,1,.879-1.319l1.785,1.19,3.507-4.208A.793.793,0,0,1,42.742,51.3l-3.963,4.755a.793.793,0,0,1-1.049.152Z" transform="translate(-118.962 8821.829)"/><g transform="translate(-229.621 8725.379)"><g transform="translate(138.611 138.611)"><path class="b" d="M149.621,138.611a11.043,11.043,0,0,0-2.524.291.321.321,0,0,0,.147.624,10.37,10.37,0,1,1-7.992,10.094,10.6,10.6,0,0,1,.093-1.391.321.321,0,0,0-.636-.085,11.221,11.221,0,0,0-.1,1.476,11.01,11.01,0,1,0,11.01-11.01Z" transform="translate(-138.611 -138.611)"/></g><path class="b" d="M145.412,139.874a.321.321,0,0,0-.427-.151,11.022,11.022,0,0,0-2.745,1.872.321.321,0,0,0,.218.556.324.324,0,0,0,.218-.086,10.347,10.347,0,0,1,2.586-1.763A.321.321,0,0,0,145.412,139.874Z" transform="translate(-0.117 -0.036)"/><path class="b" d="M140.863,143.685a.32.32,0,0,0-.444.093,10.97,10.97,0,0,0-1.031,2,.319.319,0,0,0,.182.415.306.306,0,0,0,.116.022.32.32,0,0,0,.3-.2,10.36,10.36,0,0,1,.972-1.886A.32.32,0,0,0,140.863,143.685Z" transform="translate(-0.025 -0.167)"/></g></g></svg>