<svg xmlns="http://www.w3.org/2000/svg" width="23.197" height="23.207" viewBox="0 0 23.197 23.207"><defs><style>.a{fill:#1b6592;}</style></defs><g transform="translate(-28.27 -28.547)"><path class="a" d="M39.868,51.754a11.6,11.6,0,1,1,8.206-19.808,11.64,11.64,0,0,1,2.049,13.64L51.279,49.9a1.368,1.368,0,0,1-.351,1.311,1.35,1.35,0,0,1-.962.4h0a1.363,1.363,0,0,1-.35-.046L45.3,50.405A11.608,11.608,0,0,1,39.868,51.754Zm0-21.814a10.21,10.21,0,1,0,5,19.114l.249-.14,4.8,1.287-1.286-4.8.14-.248a10.212,10.212,0,0,0-8.9-15.213Z" transform="translate(0)"/><circle class="a" cx="0.941" cy="0.941" r="0.941" transform="translate(38.285 43.885)"/><path class="a" d="M46.135,39.7a4.046,4.046,0,0,0-2.384.729.93.93,0,0,0,.628,1.652c.013,0,.026,0,.038-.005a.639.639,0,0,0,.181-.034.89.89,0,0,0,.294-.143,2.813,2.813,0,0,1,1.139-.321c.722-.031,1.06.252,1.08.748.036.84-1.919,2.012-2.024,3.673a.9.9,0,0,0,.235.531,2.273,2.273,0,0,0,.269.2.9.9,0,0,0,1.246-.5.706.706,0,0,0,.024-.1c.244-1.336,2.545-1.9,2.454-4.046C49.249,40.532,48.032,39.62,46.135,39.7Z" transform="translate(-6.64 -4.793)"/></g></svg>